<svg width="1440" height="1441" viewBox="0 0 1440 1441" fill="none" xmlns="http://www.w3.org/2000/svg">
<path d="M-28.3119 1279.61C13.6489 1269.9 56.8358 1258.05 93.7634 1235.4C148.694 1201.7 182.146 1133.2 198.014 1074.34C226.486 968.724 231.531 833.374 339.264 770.39C426.739 719.249 522.353 675.115 594.758 603.282C627.76 570.541 644.557 528.911 665.789 488.543C683.523 454.826 706.204 402.785 739.79 380.647C795.359 344.019 848.241 333.636 913.721 321.698C959.349 313.38 1014.88 303.05 1054.97 279.329C1096.11 254.992 1123.03 207.428 1147.88 168.801C1196.46 93.2861 1253.17 20.7508 1349.36 3.53548C1376.99 -1.41002 1405.93 0.640697 1433.89 0.640697C1469.37 0.640697 1559.77 -6.60178 1560 27.6139C1560.64 124.039 1470.69 238.559 1476.83 334.856C1482.83 428.721 1494.56 521.825 1497.09 615.913C1500.62 747.036 1498.17 878.448 1498.17 1009.6C1498.17 1153.31 1505.3 1296.53 1507.62 1440.14C1508.72 1507.83 1539 1525.3 1539 1593C1507.62 1526.98 1488.64 1522.08 1461 1526.98C1288.49 1526.98 1194.99 1532.1 970.987 1527.71C695.835 1532.97 370.782 1531.13 95.4733 1531.13C27.647 1531.13 -16.8263 1531.04 -46.3983 1530.6C-45.2058 1532.5 -44.5577 1534.77 -44.5289 1537.46C-44.3544 1553.78 -81.62 1541.32 -114.489 1527.17C-165.694 1536.24 -224.675 1552.63 -214.936 1526.98C-188.801 1458.15 -137.515 1424.41 -84.218 1376.19C-63.6535 1357.58 -42.8961 1334.88 -42.8961 1305.92C-42.8961 1289.63 -42.2374 1286.39 -28.3119 1279.61Z" fill="#9294CC"/>
</svg>
