<svg width="27" height="30" viewBox="0 0 27 30" fill="none" xmlns="http://www.w3.org/2000/svg">
<path d="M11.25 0C9.1875 0 7.5 1.6875 7.5 3.75H3.75C1.6875 3.75 0 5.4375 0 7.5H26.25C26.25 5.4375 24.5625 3.75 22.5 3.75H18.75C18.75 1.6875 17.0625 0 15 0H11.25ZM3.75 11.25V29.2875C3.75 29.7 4.05 30 4.4625 30H21.825C22.2375 30 22.5375 29.7 22.5375 29.2875V11.25H18.7875V24.375C18.7875 25.425 17.9625 26.25 16.9125 26.25C15.8625 26.25 15.0375 25.425 15.0375 24.375V11.25H11.2875V24.375C11.2875 25.425 10.4625 26.25 9.4125 26.25C8.3625 26.25 7.5375 25.425 7.5375 24.375V11.25H3.7875H3.75Z" fill="black"/>
</svg>
