<svg width="24" height="24" viewBox="0 0 24 24" fill="none" xmlns="http://www.w3.org/2000/svg">
<path d="M9 19.9999C4 21.4999 4 17.4999 2 16.9999M16 22.9999V19.1299C16.0375 18.6531 15.9731 18.1737 15.811 17.7237C15.6489 17.2737 15.3929 16.8634 15.06 16.5199C18.2 16.1699 21.5 14.9799 21.5 9.51994C21.4997 8.12376 20.9627 6.78114 20 5.76994C20.4559 4.54844 20.4236 3.19829 19.91 1.99994C19.91 1.99994 18.73 1.64994 16 3.47994C13.708 2.85876 11.292 2.85876 9 3.47994C6.27 1.64994 5.09 1.99994 5.09 1.99994C4.57638 3.19829 4.54414 4.54844 5 5.76994C4.03013 6.78864 3.49252 8.1434 3.5 9.54994C3.5 14.9699 6.8 16.1599 9.94 16.5499C9.611 16.8899 9.35726 17.2953 9.19531 17.7399C9.03335 18.1844 8.96681 18.658 9 19.1299V22.9999" stroke="white" stroke-width="2" stroke-linecap="round" stroke-linejoin="round"/>
</svg>
