<svg width="25" height="24" viewBox="0 0 25 24" fill="none" xmlns="http://www.w3.org/2000/svg">
<g id="github 1" clip-path="url(#clip0_1_502)">
<path id="Vector" d="M9.00977 18.9999C4.00977 20.4999 4.00977 16.4999 2.00977 15.9999M16.0098 21.9999V18.1299C16.0473 17.6531 15.9829 17.1737 15.8208 16.7237C15.6587 16.2737 15.4027 15.8634 15.0698 15.5199C18.2098 15.1699 21.5098 13.9799 21.5098 8.51994C21.5095 7.12376 20.9725 5.78114 20.0098 4.76994C20.4656 3.54844 20.4334 2.19829 19.9198 0.999938C19.9198 0.999938 18.7398 0.649938 16.0098 2.47994C13.7178 1.85876 11.3018 1.85876 9.00977 2.47994C6.27977 0.649938 5.09977 0.999938 5.09977 0.999938C4.58614 2.19829 4.55391 3.54844 5.00977 4.76994C4.03989 5.78864 3.50229 7.1434 3.50977 8.54994C3.50977 13.9699 6.80977 15.1599 9.94977 15.5499C9.62076 15.8899 9.36703 16.2953 9.20507 16.7399C9.04312 17.1844 8.97657 17.658 9.00977 18.1299V21.9999" stroke="#1D1D1B" stroke-width="2" stroke-linecap="round" stroke-linejoin="round"/>
</g>
<defs>
<clipPath id="clip0_1_502">
<rect width="24" height="24" fill="#1D1D1B" transform="translate(0.00976562)"/>
</clipPath>
</defs>
</svg>
