<svg width="25" height="24" viewBox="0 0 25 24" fill="none" xmlns="http://www.w3.org/2000/svg">
<g clip-path="url(#clip0_186_530)">
<path d="M9.00977 19C4.00977 20.5 4.00977 16.5 2.00977 16M16.0098 22V18.13C16.0473 17.6532 15.9829 17.1738 15.8208 16.7238C15.6587 16.2738 15.4027 15.8634 15.0698 15.52C18.2098 15.17 21.5098 13.98 21.5098 8.52C21.5095 7.12383 20.9725 5.7812 20.0098 4.77C20.4656 3.54851 20.4334 2.19835 19.9198 0.999999C19.9198 0.999999 18.7398 0.649999 16.0098 2.48C13.7178 1.85882 11.3018 1.85882 9.00977 2.48C6.27977 0.649999 5.09977 0.999999 5.09977 0.999999C4.58614 2.19835 4.55391 3.54851 5.00977 4.77C4.03989 5.7887 3.50229 7.14346 3.50977 8.55C3.50977 13.97 6.80977 15.16 9.94977 15.55C9.62076 15.89 9.36703 16.2954 9.20507 16.7399C9.04312 17.1844 8.97657 17.6581 9.00977 18.13V22" stroke="white" stroke-width="2" stroke-linecap="round" stroke-linejoin="round"/>
</g>
<defs>
<clipPath id="clip0_186_530">
<rect width="24" height="24" fill="white" transform="translate(0.00976562)"/>
</clipPath>
</defs>
</svg>
