<svg width="24" height="24" viewBox="0 0 24 24" fill="none" xmlns="http://www.w3.org/2000/svg">
<g id="github" clip-path="url(#clip0_188_630)">
<path id="Vector" d="M10 18.9999C5 20.4999 5 16.4999 3 15.9999M17 21.9999V18.1299C17.0375 17.6531 16.9731 17.1737 16.811 16.7237C16.6489 16.2737 16.3929 15.8634 16.06 15.5199C19.2 15.1699 22.5 13.9799 22.5 8.51994C22.4997 7.12376 21.9627 5.78114 21 4.76994C21.4559 3.54844 21.4236 2.19829 20.91 0.999938C20.91 0.999938 19.73 0.649938 17 2.47994C14.708 1.85876 12.292 1.85876 10 2.47994C7.27 0.649938 6.09 0.999938 6.09 0.999938C5.57638 2.19829 5.54414 3.54844 6 4.76994C5.03013 5.78864 4.49252 7.1434 4.5 8.54994C4.5 13.9699 7.8 15.1599 10.94 15.5499C10.611 15.8899 10.3573 16.2953 10.1953 16.7399C10.0334 17.1844 9.96681 17.658 10 18.1299V21.9999" stroke="black" stroke-width="2" stroke-linecap="round" stroke-linejoin="round"/>
</g>
<defs>
<clipPath id="clip0_188_630">
<rect width="24" height="24" fill="white"/>
</clipPath>
</defs>
</svg>
