<svg width="25" height="24" viewBox="0 0 25 24" fill="none" xmlns="http://www.w3.org/2000/svg">
<path d="M17.0098 2H7.00977C4.24834 2 2.00977 4.23858 2.00977 7V17C2.00977 19.7614 4.24834 22 7.00977 22H17.0098C19.7712 22 22.0098 19.7614 22.0098 17V7C22.0098 4.23858 19.7712 2 17.0098 2Z" stroke="white" stroke-width="2" stroke-linecap="round" stroke-linejoin="round"/>
<path d="M16.0097 11.37C16.1331 12.2022 15.991 13.0522 15.6035 13.799C15.216 14.5458 14.6029 15.1514 13.8513 15.5297C13.0998 15.9079 12.2482 16.0396 11.4175 15.9059C10.5868 15.7723 9.81948 15.3801 9.22456 14.7852C8.62963 14.1902 8.23745 13.4229 8.10378 12.5922C7.97012 11.7615 8.10178 10.9099 8.48004 10.1584C8.8583 9.40685 9.4639 8.79374 10.2107 8.40624C10.9575 8.01874 11.8075 7.87658 12.6397 8C13.4886 8.12588 14.2746 8.52146 14.8814 9.1283C15.4883 9.73515 15.8838 10.5211 16.0097 11.37Z" stroke="white" stroke-width="2" stroke-linecap="round" stroke-linejoin="round"/>
<path d="M17.5098 6.5H17.5198" stroke="white" stroke-width="2" stroke-linecap="round" stroke-linejoin="round"/>
</svg>
