<svg width="25" height="24" viewBox="0 0 25 24" fill="none" xmlns="http://www.w3.org/2000/svg">
<g id="instagram 1">
<path id="Vector" d="M17.0098 2H7.00977C4.24834 2 2.00977 4.23858 2.00977 7V17C2.00977 19.7614 4.24834 22 7.00977 22H17.0098C19.7712 22 22.0098 19.7614 22.0098 17V7C22.0098 4.23858 19.7712 2 17.0098 2Z" stroke="white" stroke-width="2" stroke-linecap="round" stroke-linejoin="round"/>
<path id="Vector_2" d="M16.0097 11.3701C16.1331 12.2023 15.991 13.0523 15.6035 13.7991C15.216 14.5459 14.6029 15.1515 13.8513 15.5297C13.0998 15.908 12.2482 16.0397 11.4175 15.906C10.5868 15.7723 9.81948 15.3801 9.22456 14.7852C8.62963 14.1903 8.23745 13.4229 8.10378 12.5923C7.97012 11.7616 8.10178 10.91 8.48004 10.1584C8.8583 9.40691 9.4639 8.7938 10.2107 8.4063C10.9575 8.0188 11.8075 7.87665 12.6397 8.00006C13.4886 8.12594 14.2746 8.52152 14.8814 9.12836C15.4883 9.73521 15.8838 10.5211 16.0097 11.3701Z" stroke="white" stroke-width="2" stroke-linecap="round" stroke-linejoin="round"/>
<path id="Vector_3" d="M17.5098 6.5H17.5198" stroke="white" stroke-width="2" stroke-linecap="round" stroke-linejoin="round"/>
</g>
</svg>
