<svg width="30" height="30" viewBox="0 0 30 30" fill="none" xmlns="http://www.w3.org/2000/svg">
<rect width="30" height="30" fill="#B6B6B6"/>
<g id="PERFIL (DE OUTRO USER)" clip-path="url(#clip0_0_1)">
<rect width="1440" height="1734" transform="translate(-537 -426)" fill="#F5F4F4"/>
<g id="skills-all">
<path id="Rectangle 28" d="M-62 -47H855V195C855 206.046 846.046 215 835 215H-42C-53.0457 215 -62 206.046 -62 195V-47Z" fill="#D6D6D6"/>
<g id="skills">
<rect id="Rectangle 30" x="-17" y="-12" width="827" height="54" rx="20" fill="#F5F5F5"/>
</g>
</g>
<g id="icons">
<g id="icons8-javascript 1">
<path id="Vector" d="M4.00081 2.40002C3.12424 2.40002 2.40002 3.12424 2.40002 4.00081V25.9992C2.40002 26.8758 3.12424 27.6 4.00081 27.6H25.9992C26.8758 27.6 27.6 26.8782 27.6 25.9992V4.00081C27.6 3.12424 26.8782 2.40002 25.9992 2.40002H4.00081ZM4.00081 3.60002H25.9992C26.2219 3.60002 26.4 3.77815 26.4 4.00081V25.9992C26.4 26.2219 26.2219 26.4 25.9992 26.4H4.00081C3.77815 26.4 3.60002 26.2219 3.60002 25.9992V4.00081C3.60002 3.77815 3.77815 3.60002 4.00081 3.60002ZM13.8 13.8V21.3446C13.8 22.5024 13.3617 22.8 12.6 22.8C11.8031 22.8 11.25 22.3032 10.8844 21.6586L9.00002 22.8C9.54612 23.9555 10.8844 25.2 12.7406 25.2C14.7938 25.2 16.2 24.1078 16.2 21.7102V13.8H13.8ZM21.2719 13.8C19.2282 13.8 17.918 15.1078 17.918 16.8258C17.918 18.6891 19.0172 19.5703 20.6696 20.2735L21.2414 20.5196C22.2844 20.9766 22.8 21.2555 22.8 22.0407C22.8 22.6946 22.3032 23.168 21.3539 23.168C20.2242 23.168 19.6899 22.4016 19.2 21.6L17.4 22.8C18.0727 24.1289 19.2797 25.2 21.4055 25.2C23.5805 25.2 25.2 24.0703 25.2 22.0102C25.2 20.0977 24.1032 19.2469 22.1555 18.4125L21.5836 18.1688C20.6016 17.7422 20.175 17.4656 20.175 16.7789C20.175 16.2235 20.6016 15.7969 21.2719 15.7969C21.9305 15.7969 22.3524 16.0758 22.7438 16.7789L24.5274 15.6352C23.775 14.3063 22.7274 13.8 21.2719 13.8Z" fill="black"/>
</g>
</g>
</g>
<defs>
<clipPath id="clip0_0_1">
<rect width="1440" height="1734" fill="white" transform="translate(-537 -426)"/>
</clipPath>
</defs>
</svg>
