<svg width="30" height="30" viewBox="0 0 30 30" fill="none" xmlns="http://www.w3.org/2000/svg">
<path d="M27 6.31579H22.5V3.15789C22.5 1.40526 21.165 0 19.5 0H10.5C8.835 0 7.5 1.40526 7.5 3.15789V6.31579H3C1.335 6.31579 0 7.72105 0 9.47368V26.8421C0 28.5947 1.335 30 3 30H27C28.665 30 30 28.5947 30 26.8421V9.47368C30 7.72105 28.665 6.31579 27 6.31579ZM10.5 3.15789H19.5V6.31579H10.5V3.15789ZM27 26.8421H3V23.6842H27V26.8421ZM27 18.9474H3V9.47368H7.5V12.6316H10.5V9.47368H19.5V12.6316H22.5V9.47368H27V18.9474Z" fill="black"/>
</svg>
